<?xml version="1.0" standalone="no"?>
<!DOCTYPE svg PUBLIC "-//W3C//DTD SVG 20010904//EN"
 "http://www.w3.org/TR/2001/REC-SVG-20010904/DTD/svg10.dtd">
<svg version="1.0" xmlns="http://www.w3.org/2000/svg"
 width="512.000000pt" height="512.000000pt" viewBox="0 0 512.000000 512.000000"
 preserveAspectRatio="xMidYMid meet">
<metadata>
Created by potrace 1.14, written by Peter Selinger 2001-2017
</metadata>
<g transform="translate(0.000000,512.000000) scale(0.100000,-0.100000)"
fill="#000000" stroke="none">
<path d="M731 4469 c-247 -48 -454 -256 -504 -504 -10 -51 -14 -145 -13 -340
1 -250 3 -273 21 -305 43 -75 111 -118 190 -117 77 0 145 37 183 99 30 48 31
65 32 337 1 265 5 289 58 344 15 16 45 38 67 49 40 21 41 21 1795 21 l1755 0
41 -21 c52 -27 100 -81 113 -129 15 -53 15 -2633 0 -2686 -14 -52 -71 -112
-125 -133 -40 -15 -111 -17 -727 -18 -614 -1 -685 -3 -717 -18 -50 -24 -76
-49 -101 -98 -61 -117 1 -264 127 -299 27 -8 257 -11 724 -11 774 1 759 0 907
72 120 59 239 185 295 313 56 128 55 85 53 1555 -1 745 -6 1371 -10 1390 -21
102 -87 228 -157 300 -47 49 -105 100 -113 100 -3 0 -23 12 -44 26 -21 14 -72
37 -112 52 l-74 27 -1810 1 c-995 1 -1830 -2 -1854 -7z"/>
<path d="M405 2773 c-83 -17 -134 -52 -167 -117 -28 -55 -29 -137 -1 -191 45
-87 97 -112 249 -120 60 -3 116 -7 124 -10 8 -2 35 -6 60 -9 25 -3 79 -15 120
-26 41 -12 89 -25 105 -29 105 -28 309 -135 430 -226 293 -221 515 -581 570
-925 4 -25 9 -53 11 -64 2 -10 6 -66 9 -125 9 -144 18 -175 68 -225 118 -117
321 -62 357 97 11 50 5 185 -15 332 -60 449 -319 905 -685 1205 -308 253 -744
420 -1117 429 -48 1 -90 3 -93 5 -3 1 -14 1 -25 -1z"/>
<path d="M333 1895 c-59 -30 -89 -66 -108 -128 -30 -103 15 -206 110 -251 18
-9 78 -21 132 -26 340 -32 575 -273 598 -610 6 -91 33 -155 82 -193 123 -93
306 -32 338 113 26 116 -23 367 -101 523 -141 279 -398 489 -689 562 -101 25
-101 25 -210 31 -94 5 -103 4 -152 -21z"/>
<path d="M367 1055 c-121 -31 -184 -168 -133 -288 52 -123 212 -165 318 -83
125 95 110 281 -28 358 -42 24 -98 28 -157 13z"/>
</g>
</svg>
